<svg width="55" height="34" viewBox="0 0 55 34" fill="none" xmlns="http://www.w3.org/2000/svg">
<g clip-path="url(#clip0_2112_1998)">
<path d="M35.2186 3.96893H19.2646V30.0265H35.2186V3.96893Z" fill="#FF5F00"/>
<path d="M20.9081 17C20.9062 14.4909 21.4749 12.0142 22.5715 9.75737C23.668 7.50054 25.2635 5.5227 27.2372 3.97353C24.7927 2.05234 21.8569 0.857668 18.7654 0.52605C15.674 0.194433 12.5516 0.73925 9.75514 2.09823C6.95868 3.45722 4.60097 5.57554 2.95148 8.2111C1.30198 10.8467 0.427246 13.8931 0.427246 17.0023C0.427246 20.1115 1.30198 23.1579 2.95148 25.7935C4.60097 28.4291 6.95868 30.5474 9.75514 31.9064C12.5516 33.2653 15.674 33.8102 18.7654 33.4785C21.8569 33.1469 24.7927 31.9523 27.2372 30.0311C25.2629 28.4814 23.667 26.5028 22.5705 24.2452C21.4739 21.9875 20.9055 19.5099 20.9081 17Z" fill="#EB001B"/>
<path d="M54.0497 17C54.0497 20.1094 53.1747 23.156 51.525 25.7917C49.8752 28.4273 47.5171 30.5456 44.7203 31.9044C41.9235 33.2632 38.8008 33.8077 35.7092 33.4756C32.6175 33.1435 29.6817 31.9482 27.2373 30.0264C29.2103 28.4759 30.8053 26.4975 31.9021 24.2406C32.999 21.9836 33.5689 19.507 33.5689 16.9977C33.5689 14.4883 32.999 12.0118 31.9021 9.7548C30.8053 7.49785 29.2103 5.51946 27.2373 3.96891C29.6817 2.04713 32.6175 0.851872 35.7092 0.519778C38.8008 0.187684 41.9235 0.732151 44.7203 2.09094C47.5171 3.44973 49.8752 5.56802 51.525 8.20367C53.1747 10.8393 54.0497 13.886 54.0497 16.9954V17Z" fill="#F79E1B"/>
</g>
<defs>
<clipPath id="clip0_2112_1998">
<rect width="55" height="34" fill="white"/>
</clipPath>
</defs>
</svg>
