<svg width="24" height="24" viewBox="0 0 24 24" fill="none" xmlns="http://www.w3.org/2000/svg">
<path d="M21 8H3V3C3 1.895 3.895 1 5 1H19C20.105 1 21 1.895 21 3V8Z" fill="#CFF6E8"/>
<path d="M8 20V23H4V20" stroke="#0FD08B" stroke-width="2" stroke-miterlimit="10" stroke-linecap="square"/>
<path d="M20 20V23H16V20" stroke="#0FD08B" stroke-width="2" stroke-miterlimit="10" stroke-linecap="square"/>
<path d="M21 12H3" stroke="#0FD08B" stroke-width="2" stroke-miterlimit="10" stroke-linecap="square"/>
<path d="M3 5H21" stroke="#0FD08B" stroke-width="2" stroke-miterlimit="10" stroke-linecap="square"/>
<path d="M21 20H3V3C3 1.895 3.895 1 5 1H19C20.105 1 21 1.895 21 3V20Z" stroke="#0FD08B" stroke-width="2" stroke-miterlimit="10" stroke-linecap="square"/>
<path d="M7 17C7.55228 17 8 16.5523 8 16C8 15.4477 7.55228 15 7 15C6.44772 15 6 15.4477 6 16C6 16.5523 6.44772 17 7 17Z" fill="#0FD08B"/>
<path d="M17 17C17.5523 17 18 16.5523 18 16C18 15.4477 17.5523 15 17 15C16.4477 15 16 15.4477 16 16C16 16.5523 16.4477 17 17 17Z" fill="#0FD08B"/>
</svg>
