<svg width="24" height="24" viewBox="0 0 24 24" fill="none" xmlns="http://www.w3.org/2000/svg">
<g opacity="0.5" clip-path="url(#clip0_2112_2049)">
<path d="M1 20V23H13V20.417C13 19.036 14.119 18 15.5 18H3C1.895 18 1 18.895 1 20Z" stroke="#442E83" stroke-width="2" stroke-miterlimit="10"/>
<path d="M15.5 18C16.794 18 18 18.924 18 20.5C18 21.881 19.119 23 20.5 23C21.881 23 23 21.881 23 20.5V1H7V18" stroke="#442E83" stroke-width="2" stroke-miterlimit="10"/>
<path d="M15.7851 5.4292H14.3006V6.25923C14.1003 6.30024 13.9124 6.3609 13.7376 6.44199C13.3699 6.60956 13.0781 6.85471 12.8698 7.17714C12.6635 7.49854 12.5636 7.87166 12.5636 8.2887C12.5636 8.73877 12.689 9.12925 12.9501 9.44633C13.2091 9.76092 13.5882 9.9869 14.0679 10.1357L15.6295 10.6218C15.8663 10.6951 16.0122 10.7808 16.0926 10.8655L16.0944 10.8673C16.1663 10.941 16.2086 11.041 16.2086 11.1867C16.2086 11.3857 16.1252 11.552 15.9306 11.6958C15.7326 11.839 15.4709 11.9182 15.1306 11.9182C14.7839 11.9182 14.4953 11.8225 14.255 11.6368C14.0179 11.4483 13.8612 11.1955 13.7866 10.8678L13.7451 10.6852L12.2935 10.9169L12.3228 11.1129C12.3902 11.5617 12.5469 11.9564 12.7968 12.2917L12.7975 12.2927C13.0489 12.6257 13.3706 12.8831 13.7591 13.0644C13.9305 13.1445 14.1112 13.2064 14.3006 13.2508V14.0957H15.7851V13.2679C16.0092 13.2231 16.2198 13.1556 16.4161 13.0647L16.4174 13.0641C16.8099 12.8792 17.1215 12.6193 17.3448 12.2828C17.5698 11.9436 17.6796 11.5517 17.6796 11.1147C17.6796 10.6188 17.5443 10.1998 17.2554 9.87907C16.9737 9.56002 16.5291 9.32544 15.9511 9.15855L14.7859 8.82114C14.4891 8.73467 14.2952 8.63712 14.1831 8.53937C14.0819 8.44858 14.0391 8.35021 14.0391 8.2347C14.0391 8.12248 14.0738 8.0242 14.1476 7.93305L14.149 7.93125C14.2263 7.83345 14.3339 7.754 14.4799 7.69614L14.4826 7.695C14.6274 7.63507 14.7959 7.60413 14.9916 7.60666C15.1937 7.61214 15.372 7.65449 15.5295 7.73073C15.6876 7.80723 15.8172 7.91316 15.9208 8.04964C16.0242 8.18578 16.0949 8.3447 16.1314 8.52989L16.1695 8.72329L17.6819 8.44776L17.6338 8.24297C17.5351 7.82259 17.3663 7.45622 17.1242 7.14851C16.8848 6.84046 16.5828 6.60447 16.2211 6.44148C16.0824 6.37849 15.9371 6.32778 15.7851 6.28905V5.4292Z" fill="#442E83"/>
</g>
<defs>
<clipPath id="clip0_2112_2049">
<rect width="24" height="24" fill="white"/>
</clipPath>
</defs>
</svg>
