<svg width="50" height="29" viewBox="0 0 50 29" fill="none" xmlns="http://www.w3.org/2000/svg">
<path d="M43.6527 10.1178L39.2577 2.73385C38.2422 1.02064 36.4457 0 34.4513 0C32.4569 0 30.6604 1.02064 29.6449 2.73385L21.4694 16.476C21.0164 17.231 20.2249 17.6841 19.3448 17.6841C19.3448 17.6841 19.3448 17.6841 19.3396 17.6841C18.4596 17.6841 17.6629 17.231 17.215 16.4708L13.4866 10.1699C12.9346 9.2378 12.0702 8.58168 11.0652 8.29007L13.4241 4.32729C13.8771 3.57743 14.6687 3.1244 15.5487 3.1244C16.4287 3.1244 17.2203 3.57743 17.6733 4.3325L20.4852 9.05554C20.9279 9.79498 21.886 10.0397 22.6255 9.59711C23.3649 9.15448 23.6096 8.19633 23.167 7.45689L20.3551 2.73385C19.3396 1.02064 17.5431 0 15.5487 0C13.5543 0 11.7578 1.02064 10.7423 2.73385L0.827583 19.3973C-0.255541 21.2147 -0.276371 23.3965 0.770302 25.2399C1.78573 27.026 3.6083 28.0935 5.63395 28.0935H44.3661C46.3969 28.0935 48.2143 27.026 49.2297 25.2399C50.2764 23.4017 50.2555 21.2147 49.1724 19.3973L43.6527 10.1178ZM32.3267 4.3325C32.7745 3.57743 33.5713 3.1244 34.4513 3.1244C35.3313 3.1244 36.1229 3.57743 36.5759 4.3325L38.9088 8.24841C37.9038 8.54002 37.0341 9.19614 36.4822 10.1387L32.7798 16.4395C32.3319 17.1998 31.5404 17.6581 30.6552 17.6581H30.65C29.7699 17.6581 28.9732 17.205 28.5254 16.4499L26.8226 13.5859L32.3267 4.3325ZM46.5167 23.6985C46.0584 24.5109 45.2721 24.9743 44.3661 24.9743H5.63395C4.72787 24.9743 3.94677 24.5109 3.48332 23.6985C2.99904 22.8498 3.00945 21.8395 3.50936 21.0012L5.55063 17.5695L6.95661 15.2054L9.0083 11.7634C9.27908 11.3051 9.7217 11.253 9.90396 11.253C10.0914 11.2426 10.5288 11.2999 10.7996 11.7634L14.5229 18.059C15.5383 19.7774 17.3348 20.8033 19.3344 20.8085C19.3396 20.8085 19.3396 20.8085 19.3448 20.8085C21.3393 20.8085 23.1358 19.7878 24.1564 18.0746L25.0052 16.6478L25.8436 18.0538C26.8642 19.767 28.6608 20.7877 30.6552 20.7877C30.6604 20.7877 30.6656 20.7877 30.6708 20.7877C32.6704 20.7824 34.4669 19.7462 35.4824 18.0226L39.1848 11.7217C39.4555 11.2582 39.9034 11.2062 40.0804 11.2062C40.0804 11.2062 40.0804 11.2062 40.0856 11.2062C40.2679 11.2062 40.7053 11.2582 40.9813 11.7165L43.9391 16.6895L46.5011 21.0012C46.9906 21.8343 47.001 22.8445 46.5167 23.6985Z" fill="white"/>
</svg>
